<svg width="96" height="136" viewBox="0 0 96 136" fill="none" xmlns="http://www.w3.org/2000/svg">
<g filter="url(#filter0_i)">
<circle cx="48" cy="88" r="48" fill="#F7F7F8"/>
</g>
<circle cx="48" cy="88" r="46.5" stroke="#25252D" stroke-width="3"/>
<mask id="mask0" mask-type="alpha" maskUnits="userSpaceOnUse" x="0" y="40" width="96" height="96">
<circle cx="48" cy="88" r="48" fill="white"/>
</mask>
<g mask="url(#mask0)">
<rect x="49.7034" y="106.023" width="32.4086" height="39.9249" fill="#FFC233"/>
<path fill-rule="evenodd" clip-rule="evenodd" d="M40.2505 66.9718C43.744 64.3106 52.5146 63.1139 56.2431 65.6763C59.9258 68.2494 60.3273 72.4106 62.0434 76.2386C63.6625 75.4748 66.3364 76.5687 66.8058 78.0717C67.388 78.7806 67.4142 80.7722 67.8157 81.7251C85.2855 84.507 87.9377 98.1322 90.0405 113.601C92.8222 129.297 99.1371 144.96 96.3957 161.112C96.7529 161.629 97.0345 162.131 97.2949 162.728C97.9189 163.79 97.1152 165.294 95.8566 165.236C94.2275 165.092 92.6146 164.897 90.9779 164.836C86.4407 164.678 81.8994 164.697 77.3605 164.755L76.7416 164.763C53.867 165.048 30.9936 165.609 8.1179 165.758C7.28802 165.759 6.88171 165.015 6.99252 164.28C7.2157 162.801 7.42275 161.322 7.63885 159.842C2.22817 161.272 -3.52386 161.632 -8.91925 159.993C-9.29669 159.608 -8.03983 159.817 -7.84043 159.758C-12.8059 156.364 -11.323 149.213 -10.8832 144.063C-8.1481 126.415 -7.18391 106.889 3.38342 91.8298C7.95501 85.6842 14.6574 80.8184 22.3589 79.7236L22.5725 79.6943C24.8244 79.394 27.3342 79.2972 29.3031 78.0717C31.5175 76.3032 32.4612 73.0355 34.7908 73.0049C35.5601 72.9948 36.6066 73.9684 37.7327 74.6294C37.8168 73.1753 38.6001 71.9481 38.773 70.8207L38.787 70.7243C38.9675 69.4099 38.7204 68.2273 40.2505 66.9718ZM77.7947 114.067C72.8852 110.655 60.203 112.369 59.9127 112.56C59.2734 112.981 58.9981 113.018 58.6524 113.564C58.3111 113.61 57.97 113.657 57.6292 113.705C56.9455 113.929 57.4522 114.77 58.2419 114.47C57.7669 116.519 59.1647 117.976 59.7212 120.002C59.9019 120.66 59.7277 121.843 59.7212 122.515C59.7751 123.372 60.7222 124.384 60.5644 125.244C60.0032 128.301 56.9579 131.282 58.2419 134.246C59.0924 135.921 61.6506 136.774 63.3514 137.343C66.8751 138.696 73.0149 137.292 75.0623 134.246C76.1544 132.622 77.4196 128.523 78.0707 127.252L78.215 125.236C78.571 120.223 78.8876 114.826 77.7947 114.067Z" fill="#EDB98A"/>
<path fill-rule="evenodd" clip-rule="evenodd" d="M34.6092 73.014L36.0142 73.8766L44.1741 77.9118C45.756 78.3549 46.547 78.886 46.547 79.505V85.8079C46.547 86.6513 48.0315 88.5629 51.0005 91.5427L53.7434 88.8072L53.6821 88.449C53.4211 86.9058 53.2906 85.8735 53.2906 85.3521C53.2906 84.7913 55.9741 82.6626 61.3411 78.966L63.6891 76.7546L63.4388 75.9929C64.8865 76.0614 66.4565 76.9533 66.8058 78.0717C67.388 78.7806 67.4142 80.7722 67.8157 81.7252C85.2855 84.507 87.9377 98.1323 90.0405 113.601C92.8222 129.297 99.1371 144.96 96.3957 161.112C96.7529 161.629 97.0345 162.131 97.2949 162.728C97.9189 163.79 97.1152 165.294 95.8566 165.236C94.2275 165.092 92.6146 164.897 90.9779 164.836C86.4407 164.678 81.8994 164.697 77.3605 164.755L76.7416 164.763C53.867 165.048 30.9936 165.609 8.1179 165.758C7.28802 165.759 6.88171 165.015 6.99252 164.28C7.2157 162.801 7.42275 161.322 7.63885 159.842C2.22817 161.272 -3.52386 161.632 -8.91925 159.993C-9.29669 159.608 -8.03983 159.817 -7.84043 159.758C-12.8059 156.364 -11.323 149.213 -10.8832 144.063C-8.1481 126.415 -7.18391 106.889 3.38342 91.8298C7.95501 85.6842 14.6574 80.8185 22.3589 79.7236L22.5725 79.6944L22.7877 79.6663C24.9832 79.3867 27.3967 79.2583 29.3031 78.0717C31.4591 76.3499 32.4105 73.207 34.6092 73.014ZM54.1614 110.009C53.361 110.009 51.7219 111.252 49.2441 113.739L49.0258 113.84C46.0305 115.232 44.0462 116.439 43.0729 117.462L43.0382 117.499C42.0549 118.554 40.1078 121.36 37.1968 125.917L32.9814 128.411H31.3863L30.2508 136.651L32.9814 142.535L39.1664 140.451L49.2441 137.794L55.027 131.925L58.2891 130.829C57.8933 131.973 57.7499 133.111 58.2417 134.246C59.0922 135.921 61.6504 136.774 63.3512 137.343C66.875 138.696 73.0148 137.293 75.0622 134.246C76.1542 132.622 77.4194 128.523 78.0706 127.252L78.2573 124.633C78.5939 119.799 78.8437 114.796 77.7946 114.067C72.8851 110.655 60.2029 112.369 59.9125 112.56C59.2733 112.981 58.998 113.018 58.6523 113.564L58.4733 113.588L59.4798 112.223L59.1234 112.033C56.5805 110.684 54.9265 110.009 54.1614 110.009ZM58.2418 114.47C57.7871 116.432 59.0488 117.851 59.6456 119.746L58.1209 116.826L58.1208 114.508C58.1603 114.498 58.2007 114.485 58.2418 114.47Z" fill="#25252D"/>
<path fill-rule="evenodd" clip-rule="evenodd" d="M33.9355 72.7094C34.2744 72.4091 34.776 72.7864 34.5606 73.192C34.0766 74.1036 33.5801 74.9674 32.9305 75.7732C32.5367 76.2618 32.1148 76.7239 31.6873 77.181C32.7845 78.1305 33.7255 79.3094 34.6141 80.4143C35.7504 81.8274 36.8246 83.3004 38.1002 84.5934C39.3581 85.8686 40.7491 86.76 42.4309 87.3545L42.7706 87.4725C44.4601 88.0658 46.2659 88.8672 47.2182 90.4674C47.406 90.783 47.0278 91.1729 46.71 90.976C45.0552 89.951 43.1108 89.7448 41.3095 89.0675C39.5695 88.4133 38.0526 87.4064 36.7124 86.1213C35.3745 84.8383 34.2511 83.3787 33.0793 81.9499C31.9205 80.537 30.6728 79.3304 29.3022 78.135C27.1871 79.5585 24.7727 80.1779 22.3177 80.7863L22.0497 80.8526C19.5918 81.4614 17.147 82.1684 14.841 83.2286C12.8079 84.1631 10.8082 85.2792 9.15211 86.8C7.39412 88.414 6.02588 90.4754 4.77355 92.4913C1.97226 97.0014 0.00283337 101.942 -1.73096 106.944C-3.53423 112.145 -5.04257 117.451 -6.26023 122.82C-6.87953 125.552 -7.3825 128.302 -7.79589 131.072C-7.99487 132.406 -8.17163 133.742 -8.32688 135.082C-8.4926 136.513 -8.53067 137.985 -8.96939 139.36C-9.15747 139.95 -9.60157 140.194 -10.0461 140.174L-10.1364 141.303C-10.2561 142.809 -10.3677 144.316 -10.4054 145.831C-10.468 148.351 -10.4396 150.864 -10.2584 153.378L-10.2328 153.721C-10.0904 155.556 -9.77225 157.618 -8.39283 158.962C-6.9643 160.353 -4.76746 160.791 -2.84205 160.816C1.64237 160.875 5.95908 158.755 9.92736 156.895C14.0142 154.98 17.9895 152.854 21.8694 150.549C23.8454 149.375 25.7999 148.162 27.7296 146.913C28.6765 146.3 29.6168 145.677 30.55 145.044C31.0845 144.681 31.591 144.283 32.1352 143.961C31.8685 143.713 31.7495 143.323 31.9728 142.982C30.3998 141.616 29.7451 139.178 29.6686 137.206C29.6067 135.614 29.841 134.026 30.0258 132.449C30.119 131.654 30.2342 130.86 30.3538 130.069C30.4011 129.756 30.4372 129.421 30.4924 129.091C26.2449 131.426 21.8783 133.506 17.3962 135.353C15.0987 136.3 12.7718 137.152 10.4128 137.932L9.93464 138.089C7.69946 138.821 5.41078 139.513 3.10005 139.931C2.9765 139.953 2.87616 139.771 3.00806 139.713C5.25996 138.719 7.58984 137.88 9.87557 136.965L10.2512 136.812C10.208 136.809 10.1633 136.803 10.1166 136.792C8.77608 136.469 7.44605 135.97 6.13131 135.55C4.91111 135.16 3.54018 134.915 2.39965 134.327C2.31191 134.282 2.36102 134.16 2.4465 134.154C3.72841 134.065 5.12 134.439 6.37685 134.658L6.84901 134.741C7.63998 134.881 8.4485 135.031 9.2356 135.226C9.26405 134.963 9.41137 134.698 9.62097 134.542C11.9274 132.834 11.6931 129.383 11.9398 126.838L12.1227 124.948C12.4445 121.642 12.7848 118.336 13.302 115.054C13.3296 114.879 13.6006 114.929 13.6017 115.094C13.6284 119.162 13.3214 123.212 13.1675 127.274L13.1437 127.94C13.0586 130.446 12.992 133.049 11.4141 134.977C11.6347 134.848 11.933 134.848 12.1118 135.061C12.3314 135.323 12.4582 135.616 12.4542 135.904C13.8801 135.306 15.2997 134.693 16.7124 134.067C21.2542 132.054 25.7009 129.801 30.0299 127.364C30.4958 127.101 30.9386 127.308 31.169 127.653L31.2023 127.649C31.2078 127.648 31.2134 127.647 31.2192 127.647L31.2522 127.646C31.2535 127.646 31.2548 127.646 31.2559 127.646C31.8653 127.311 32.6955 127.549 33.2184 128.038C33.2338 128.053 33.247 128.069 33.2607 128.084C33.9227 127.787 34.5409 127.386 35.1019 126.877C36.2499 125.836 37.2223 124.549 38.07 123.258C39.6312 120.881 40.9572 118.238 43.0661 116.281C44.7795 114.691 46.9037 113.701 49.1323 113.08C49.1229 113.015 49.1478 112.946 49.1928 112.899C49.3073 112.782 49.389 112.741 49.5369 112.813C49.5486 112.818 49.5557 112.826 49.5605 112.835L49.778 112.463C49.8967 112.261 50.0186 112.058 50.0608 112.005C50.3138 111.686 50.5742 111.37 50.8386 111.06C51.2868 110.536 51.7976 110.019 52.389 109.655C53.6839 108.859 55.0452 109.31 56.3765 109.745C57.1809 110.008 57.9826 110.279 58.7856 110.546L58.8685 110.573C59.4672 110.765 60.1679 110.934 60.4356 111.568C60.5416 111.819 60.5581 112.08 60.5087 112.333C66.1956 110.886 72.512 111.551 78.0615 113.249C78.2745 113.314 78.4872 113.49 78.5321 113.72C79.168 116.982 79.4511 120.327 79.1634 123.645C78.9152 126.509 78.2809 129.315 77.0856 131.937L77.0176 132.085C75.8943 134.515 74.1139 137.51 71.3948 138.272C69.753 138.732 67.9372 138.461 66.2627 138.376C64.6353 138.294 62.9719 138.283 61.3599 138.027C59.9243 137.799 58.6665 137.155 57.7793 135.987C57.0139 134.98 56.6109 133.762 56.2807 132.551C56.1296 132.599 55.9794 132.65 55.8316 132.708C55.208 132.952 54.6795 133.345 54.2017 133.808C53.1928 134.785 52.4102 135.972 51.3546 136.905C50.399 137.75 49.3102 138.406 48.1422 138.911C45.722 139.957 43.1256 140.375 40.5656 140.93L40.387 140.969C38.4598 141.392 36.4926 141.911 34.7915 142.915C34.7583 143.21 34.6237 143.488 34.408 143.67C34.708 143.952 34.8351 144.399 34.5715 144.818C33.835 145.987 32.5665 146.652 31.4276 147.4L31.3535 147.449C30.2333 148.192 29.1032 148.92 27.9639 149.633C25.6479 151.084 23.2835 152.455 20.8857 153.765C17.0291 155.873 13.0897 157.861 9.07894 159.664C9.31967 160.849 9.2317 162.071 9.41264 163.264L9.44038 163.434C9.51768 163.876 9.41327 164.247 9.10849 164.536L9.07625 164.565L9.07681 164.562L9.04823 164.588L9.03867 164.596L9.04186 164.593C9.00673 164.625 8.97048 164.655 8.93353 164.681L8.88647 164.711C8.59292 164.89 8.21499 164.888 7.91443 164.73L7.8801 164.711L7.82236 164.678C7.42525 164.45 7.1514 163.884 7.31614 163.434C7.72103 162.328 7.87402 161.149 8.24792 160.036L7.95129 160.168L7.56032 160.339C3.33193 162.168 -1.36495 163.708 -5.97209 162.461C-8.00775 161.91 -9.91037 160.744 -10.9289 158.844C-11.9312 156.975 -12.0728 154.804 -12.126 152.724C-12.1917 150.157 -12.0542 147.551 -11.7158 145.006C-11.4886 143.298 -11.2139 141.557 -10.7902 139.867C-11.0082 139.674 -11.1684 139.398 -11.2107 139.056C-11.4106 137.442 -11.0607 135.763 -10.8464 134.157C-10.6371 132.588 -10.4058 131.023 -10.1443 129.463C-9.61629 126.311 -9.00279 123.167 -8.28853 120.052C-7.01737 114.509 -5.33878 109.065 -3.31784 103.751L-3.14086 103.288C-1.27341 98.4303 0.888818 93.6765 3.89965 89.4093C5.33992 87.3677 6.86242 85.5168 8.8975 84.0456C10.8041 82.6672 12.9547 81.6748 15.174 80.9162C17.3958 80.1571 19.6794 79.6484 22.0033 79.3319C24.3635 79.0106 26.8547 78.8135 29.0564 77.8451C28.7778 77.3456 29.0169 76.6713 29.4856 76.3615C31.063 75.3189 32.5217 73.9626 33.9355 72.7094ZM84.4312 118.046C84.4973 117.945 84.6542 118.009 84.6252 118.127C83.858 121.272 83.1378 124.422 82.6675 127.627C81.8186 133.41 81.9747 139.269 82.0441 145.095L82.0476 145.396C82.0833 148.535 82.1328 151.673 82.2366 154.81C82.2889 156.396 82.3925 157.996 82.3362 159.583C82.3055 160.443 82.0762 161.257 81.995 162.107C81.9238 162.851 81.9872 163.606 82.0227 164.35C82.0465 164.845 81.3163 164.824 81.2666 164.35L81.2031 163.737C81.1206 162.961 81.0186 162.191 80.7645 161.448C80.4589 160.555 80.3123 159.678 80.2063 158.741C80.0439 157.304 79.9717 155.853 79.9091 154.406L79.8662 153.406C79.6046 147.36 79.6137 141.285 80.0374 135.246L80.0683 134.814C80.4878 129.105 81.2156 122.937 84.4312 118.046ZM68.0778 82.0641C67.8774 81.9817 67.9476 81.6785 68.1695 81.7314L68.573 81.8277C71.5301 82.5362 74.4334 83.3039 77.1935 84.6224C79.9553 85.9416 82.2935 87.9111 84.1514 90.3329C87.7631 95.0405 89.2639 100.762 90.4488 106.477C91.7655 112.829 92.9643 119.203 94.2925 125.553L94.5392 126.735C95.7681 132.649 96.9285 138.566 97.7834 144.55L97.8449 144.984C98.707 151.137 99.2256 157.503 98.2849 163.672C98.0988 164.893 96.0685 164.589 96.1479 163.383C96.3771 159.897 96.5413 156.429 96.3827 152.935C96.2239 149.441 95.8962 145.961 95.4079 142.497C94.9968 139.582 94.3842 136.704 93.842 133.812L93.757 133.355C93.303 130.895 92.8349 128.438 92.3679 125.98L91.67 122.301C90.624 116.792 89.5576 111.278 88.3525 105.803L88.281 105.481C87.1017 100.214 85.3631 94.6969 81.8258 90.5144C78.2361 86.2698 73.0973 84.1321 68.0778 82.0641ZM55.0342 137.93C55.1205 137.738 55.4225 137.759 55.5154 137.93C55.8791 138.602 55.9196 139.459 55.9883 140.217L55.9956 140.295C56.083 141.22 56.1604 142.148 56.2078 143.076C56.2977 144.837 56.3407 146.596 56.3352 148.359C56.3296 150.166 56.2932 151.971 56.1958 153.775L56.1694 154.259C56.0805 155.827 55.9314 157.576 55.1866 158.947C54.9159 159.445 54.1796 159.299 54.0227 158.795C53.509 157.144 53.7728 155.188 53.9046 153.498L54.0069 152.179C54.1082 150.86 54.2048 149.54 54.2814 148.22C54.3865 146.413 54.4731 144.605 54.5564 142.798C54.5835 142.211 54.6128 141.623 54.6437 141.036L54.6913 140.156C54.7319 139.419 54.7285 138.611 55.0342 137.93ZM-2.72791 140.269L-2.50049 140.049C-1.80237 139.366 -0.920142 138.313 0.111914 138.378C0.52346 138.405 0.785701 138.746 0.700363 139.151C0.518083 140.017 -0.364875 140.467 -1.00045 140.995C-1.69674 141.574 -2.35298 142.193 -3.00795 142.818C-3.589 143.372 -4.14781 143.942 -4.69321 144.529L-4.89713 144.75C-5.09263 144.964 -6.4848 146.223 -6.33427 146.55L-6.32608 146.565C-6.28418 146.627 -6.35396 146.713 -6.42344 146.692C-7.02463 146.502 -6.98713 145.986 -6.75984 145.464C-6.3231 144.46 -5.55832 143.532 -4.89047 142.675C-4.22443 141.82 -3.50354 141.024 -2.72791 140.269ZM57.2126 115.103C56.7477 114.004 55.0351 114.027 54.0628 114.093C51.6145 114.258 48.9655 114.878 46.787 116.023C44.5285 117.21 43.0072 119.111 41.646 121.214L41.5823 121.313C40.2555 123.376 38.9777 125.818 36.9002 127.237C35.842 127.96 34.6064 128.62 33.3225 128.905C33.2343 129.061 33.0915 129.183 32.9043 129.228L32.8172 129.248C32.4516 129.329 31.8835 129.418 31.3928 129.364C31.3961 129.605 31.3935 129.843 31.3996 130.07C31.4169 130.722 31.4242 131.377 31.4242 132.03C31.4245 133.396 31.3511 134.766 31.4081 136.133C31.4586 137.342 31.6293 138.605 32.2095 139.686C32.6351 140.478 33.1968 141.003 33.8748 141.504C35.5428 140.487 37.4289 139.867 39.3431 139.401C41.6581 138.838 44.0285 138.461 46.2909 137.697C47.3797 137.329 48.4266 136.848 49.3751 136.194C50.3817 135.499 51.1506 134.56 51.9417 133.641L52.0654 133.498C52.8727 132.572 53.7537 131.685 54.8947 131.183C55.8773 130.751 57.1724 130.674 58.0316 130.004C58.4808 129.654 58.5184 129.146 58.5657 128.625C58.0154 128.704 57.4329 128.578 56.8845 128.513L56.6004 128.48C56.0818 128.418 55.5752 128.351 55.0647 128.219C54.9699 128.194 54.9699 128.051 55.0647 128.027C55.668 127.871 56.2659 127.804 56.8845 127.732L57.0298 127.714C57.5894 127.64 58.1776 127.53 58.7266 127.653C58.8251 127.278 58.9673 126.92 59.1668 126.562C59.4469 126.058 59.9769 125.487 60.0485 124.899C60.0699 124.723 60.029 124.516 59.9462 124.361L59.9177 124.308C59.8829 124.245 59.8417 124.182 59.7813 124.143C59.7747 124.151 59.7605 124.16 59.7298 124.17C59.3074 124.303 58.9389 124.096 58.7433 123.777C57.913 123.88 57.0068 123.845 56.2281 123.88L55.4408 123.918C54.5996 123.956 53.7202 123.973 52.9297 123.803C52.8193 123.78 52.7859 123.596 52.8964 123.549C53.8683 123.133 55.0471 123 56.0876 122.84C56.6687 122.751 57.254 122.683 57.8368 122.605C58.2249 122.552 58.6367 122.466 59.0388 122.445C60.0468 121.189 59.5037 119.209 58.1008 118.669C57.5897 118.893 57.1302 118.763 56.5719 118.715C56.0146 118.667 55.4558 118.634 54.8963 118.637C53.775 118.642 52.5868 118.937 51.4764 118.81C51.2958 118.789 51.128 118.548 51.3075 118.402C52.1575 117.708 53.3757 117.482 54.4546 117.334L54.6782 117.304C55.0399 117.256 55.4798 117.187 55.936 117.146C56.0392 116.945 56.2243 116.793 56.5024 116.755C56.5851 116.743 56.6681 116.737 56.7511 116.73L56.7498 116.721C57.428 116.689 57.3985 115.543 57.2126 115.103ZM10.7802 136.54C10.7688 136.558 10.7563 136.575 10.7429 136.591L10.7224 136.615L10.8289 136.571L10.7802 136.54ZM69.047 112.647C66.1925 112.34 63.3339 112.405 60.4709 112.487C60.2419 113.236 59.4448 113.875 58.6726 113.899C59.2774 114.82 59.3398 116.066 58.9157 117.043C59.8162 117.402 60.592 118.046 61.063 118.963C61.7161 120.235 61.6307 121.65 60.9852 122.826C61.5361 123.325 61.8612 124.135 61.8287 124.899C61.7923 125.75 61.2849 126.478 60.8633 127.183C60.4078 127.945 60.3925 128.617 60.2525 129.471C60.0477 130.72 59.2051 131.478 58.1209 131.952L58.1785 132.179C58.4581 133.267 58.8058 134.416 59.6048 135.212C60.6325 136.235 62.2268 136.226 63.5847 136.291L63.6502 136.294C64.8935 136.356 66.1364 136.429 67.3793 136.5L68.3115 136.552C69.7426 136.63 71.1169 136.64 72.2852 135.693C74.1925 134.149 75.5 131.592 76.3276 129.328C78.0647 124.578 78.0855 119.364 77.2881 114.416C74.6141 113.554 71.8395 112.947 69.047 112.647ZM45.3082 120.529L45.3292 120.53C45.9169 120.598 46.3207 121.074 46.4645 121.638C46.6733 122.459 46.5709 123.201 47.0734 123.942C47.5904 124.704 47.9083 125.314 47.9834 126.256C48.0143 126.643 48.0001 127.03 48.0863 127.409L48.1488 127.674C48.2152 127.958 48.2695 128.23 48.2365 128.534C48.2063 128.812 48.0713 129.028 47.7932 129.117C46.887 129.407 46.1874 128.739 45.9533 127.894C45.751 127.164 46.0211 126.295 45.7358 125.61C45.5777 125.23 45.2861 124.912 45.1214 124.53C44.9582 124.151 44.8763 123.755 44.8501 123.343C44.8004 122.563 45.4894 121.627 45.105 120.921C45.0231 120.77 45.1158 120.524 45.3082 120.529ZM33.2714 112.488C33.885 112.363 34.5812 112.077 35.1863 112.315C35.4974 112.437 35.6511 112.816 35.3883 113.08C34.932 113.538 34.2688 113.563 33.6542 113.671L33.6001 113.681C32.8734 113.815 32.1454 113.943 31.4164 114.064C30.0449 114.291 28.6702 114.492 27.2906 114.663C25.8737 114.838 24.4528 114.994 23.03 115.112L22.4791 115.157C21.2772 115.253 20.0266 115.326 18.8473 115.141C18.6759 115.115 18.7035 114.865 18.8473 114.821C20.1392 114.43 21.5564 114.325 22.8921 114.16C24.3122 113.983 25.7298 113.797 27.1437 113.576C28.5554 113.356 29.9653 113.119 31.3699 112.857C32.0047 112.739 32.6386 112.616 33.2714 112.488ZM55.4132 111.231C54.8747 111.041 54.2822 110.758 53.6988 110.853C52.6925 111.016 51.797 111.997 51.0005 112.642L51.4004 112.565C53.4467 112.171 56.1566 111.747 57.8744 113.049C57.8788 113.041 57.8821 113.034 57.8871 113.026C58.0258 112.816 58.1864 112.651 58.3618 112.471C58.3785 112.455 58.3947 112.439 58.4107 112.422L58.5053 112.322L58.2889 112.247C57.8254 112.083 57.2764 111.871 57.1896 111.84L57.1836 111.838C56.5927 111.638 56.0012 111.44 55.4132 111.231ZM38.6001 68.323C38.5159 67.2395 40.2016 67.2484 40.2851 68.323C40.4672 70.6689 39.9395 72.9926 38.8036 75.0493C38.7953 75.0643 38.7861 75.0776 38.7773 75.0918C39.4878 75.4616 40.2063 75.8164 40.9408 76.1335C41.8803 76.5393 42.8376 76.9088 43.812 77.2222C44.6934 77.506 45.7793 77.6179 46.5203 78.2083C48.0828 79.4531 47.4958 82.0363 47.1952 83.7107L47.1483 83.9751C46.9986 84.8367 46.8904 85.7207 47.2535 86.5477C47.6413 87.431 48.4255 88.0862 49.125 88.7182L49.2663 88.8464C49.886 89.4111 50.5942 90.0975 51.0487 90.8631C51.4637 90.0049 52.0293 89.3035 52.6274 88.5139C53.0541 87.9504 52.7504 87.7647 52.4438 87.2142C52.1488 86.6844 52.0047 86.1197 52.097 85.5153C52.2672 84.3991 53.159 83.5928 54.0466 82.987C55.0948 82.2719 56.2648 81.7421 57.3484 81.0768C59.5751 79.71 61.7437 78.1473 63.6974 76.4117C63.7513 76.3637 63.8447 76.4266 63.8016 76.4921C62.2583 78.8405 60.4486 80.8697 58.2246 82.5921C57.3228 83.2906 56.3755 83.8699 55.4218 84.4789L55.1476 84.6549C54.7647 84.903 54.2871 85.2347 54.1139 85.6572C53.9397 86.082 54.3112 86.4028 54.5112 86.7548C55.1462 87.8725 54.8398 88.9153 54.087 89.8632L54.052 89.9069C53.3039 90.8291 52.7369 91.6868 52.4658 92.865C51.8832 95.396 52.6947 98.0323 53.5442 100.408L53.5777 100.502C54.0372 101.783 54.5256 103.054 54.9249 104.355L55.0347 104.715C55.3964 105.912 55.6927 107.093 55.2869 108.324C55.1489 108.743 54.5781 108.842 54.3411 108.448C53.5048 107.058 53.2964 105.386 52.7722 103.859C52.2613 102.37 51.6747 100.908 51.1812 99.4128C50.5457 97.4881 50.1205 95.4162 50.3513 93.3973C50.3445 93.3856 50.337 93.3745 50.3313 93.3621L50.1696 93.0081C49.7285 92.0497 49.3025 91.2127 48.5003 90.4487C47.6636 89.6518 46.7555 88.9463 46.0971 87.9816C44.6671 85.8861 45.5515 83.555 45.7242 81.2637L45.744 80.9827C45.7754 80.507 45.7926 79.8605 45.4819 79.5312C45.1325 79.1606 44.3131 79.066 43.8495 78.9019C42.6514 78.4777 41.4706 77.9835 40.3461 77.39C39.2756 76.8251 38.2387 76.201 37.2732 75.4699L36.7839 75.1017C36.0118 74.5189 35.2112 73.8825 34.6937 73.0892C34.634 72.9978 34.7355 72.8505 34.8436 72.8942C35.7074 73.2449 36.4967 73.8027 37.3049 74.288C37.3175 74.2585 37.3321 74.2286 37.3487 74.1986C38.3487 72.3881 38.7599 70.3822 38.6001 68.323ZM66.1946 80.7273C66.5388 79.7831 68.1074 79.856 68.0449 80.9779C67.9969 81.8398 67.6311 82.6177 67.2967 83.4002L67.261 83.4841C66.9156 84.2994 66.5168 85.0649 66.0396 85.8122C65.1278 87.2407 64.0597 88.5664 62.9189 89.8176C61.8847 90.9519 60.5272 91.6455 58.963 91.5302C58.3039 91.4817 57.6386 91.3139 57.061 90.9846C56.3751 90.5933 55.6301 89.4183 54.7549 89.7029C54.6703 89.7304 54.5913 89.6063 54.6645 89.5476C55.6748 88.7336 56.8216 89.9957 57.7889 90.2998C59.2464 90.7578 60.7422 90.2514 61.6803 89.0726C62.6598 87.8419 63.5613 86.4639 64.3845 85.1238C64.8026 84.4434 65.184 83.7372 65.5134 83.0094C65.8459 82.2747 65.9215 81.4764 66.1946 80.7273ZM63.8451 74.9167C63.8026 74.7863 63.9645 74.6623 64.079 74.7367C64.7429 75.1691 65.3182 75.7404 65.9305 76.2411C66.61 76.7967 67.2944 77.3409 67.9894 77.8768C69.0025 78.6582 67.8275 80.0966 66.9356 79.243C65.7151 78.0754 64.3785 76.5486 63.8451 74.9167ZM60.2002 70.3465C60.4699 69.3061 62.0651 69.7352 61.8326 70.7634L61.825 70.7948C61.3848 72.4932 62.0118 74.2224 63.3504 75.3235L63.3997 75.3635C64.2466 76.0415 63.0468 77.2268 62.2083 76.5553C60.3777 75.0897 59.6162 72.6 60.2002 70.3465Z" fill="#25252D"/>
</g>
<circle cx="48" cy="88" r="46.5" stroke="#25252D" stroke-width="3"/>
<path fill-rule="evenodd" clip-rule="evenodd" d="M73.5747 44.5785C73.2707 41.9005 73.6641 36.3031 73.6905 35.963C73.8571 33.8132 72.8523 25.3238 70.9529 26.106C67.7666 23.5773 63.5227 23.0189 59.5543 22.7522C51.3114 22.198 42.5425 23.4701 36.1775 29.0313C33.0298 31.9193 29.9654 36.1198 30.2117 40.4934C27.3518 44.6391 23.32 50.3258 26.8833 55.1724C28.0945 56.7209 30.0196 57.2975 31.5412 58.4702C34.6017 60.945 36.5219 64.4966 39.6115 66.9567C47.7968 74.3304 61.6956 75.8708 69.7377 67.4837C75.9566 61.4095 74.951 52.3222 73.8571 44.5785C73.1217 39.3723 74.1678 49.8029 73.5747 44.5785Z" fill="#EDB98A"/>
<path fill-rule="evenodd" clip-rule="evenodd" d="M48.5428 11.3958C50.7473 10.9499 53.011 10.6724 55.2622 10.7559L55.4358 10.7627C57.1297 10.8305 59.2748 10.9807 60.7524 11.9681C60.8375 11.8826 60.9742 11.8387 61.0982 11.898C62.8541 12.7383 64.7855 13.3458 66.6344 13.9495C68.4748 14.5502 70.3842 14.9467 72.3132 15.1066C73.0389 15.1667 73.66 15.9524 73.2005 16.657C73.0912 16.8249 72.9847 16.9945 72.8786 17.1645C73.056 17.146 73.2334 17.1269 73.4108 17.1089C73.9944 17.05 74.5775 17.6745 74.5429 18.2442C74.5213 18.6026 74.4828 18.9566 74.4257 19.3065C74.648 19.3018 74.869 19.3352 75.0826 19.4257C76.1638 19.8834 76.0885 21.1745 76.0076 22.1567C75.8954 23.5198 75.3869 24.9636 74.4427 25.9838C75.1477 26.7179 75.6467 27.5946 75.9444 28.6357C76.1604 29.396 76.2806 30.2058 76.2212 30.9972L76.2023 31.2342C76.129 32.093 75.9831 33.0439 75.3668 33.6617C75.0505 33.9803 74.6607 34.0964 74.2892 34.0596C74.5138 36.0388 74.6579 38.0294 74.7935 40.0129L74.857 40.9609C75.1595 45.5452 75.3867 50.1593 75.3273 54.7511C75.2721 59.0424 74.4263 63.2076 71.8009 66.6918C69.4099 69.8646 65.9769 72.2034 62.0932 73.0925C60.0003 73.5725 57.8636 73.6064 55.7452 73.3006C54.7184 73.152 53.6848 72.924 52.7102 72.5644C51.6314 72.1652 50.8561 71.5776 50.1302 70.697C49.7868 70.2794 49.9521 69.3903 50.6357 69.4738C51.6697 69.5995 52.6136 69.751 53.6048 70.0575L53.7468 70.1024C54.7341 70.4195 55.7565 70.656 56.7887 70.7565C58.903 70.9618 61.0494 70.7551 63.0747 70.1123C66.3723 69.0646 69.2123 66.73 71.0327 63.7965C73.1934 60.3194 73.4377 56.3722 73.4065 52.3741C73.3731 47.9868 73.2307 43.597 72.9984 39.2143L72.9588 38.4839C72.836 36.2285 72.7173 33.9718 72.613 31.715C72.5805 31.0072 72.5311 30.2936 72.442 29.5871C71.6272 29.1086 70.8971 28.4489 70.4212 27.6348C69.4651 28.0312 68.4596 28.3172 67.5344 28.5451C65.3915 29.0735 63.1667 29.2018 60.9855 28.8709C60.3971 29.1145 59.7971 29.3288 59.1878 29.5131C59.0232 29.5863 58.8585 29.6582 58.694 29.7287C57.2251 30.3587 55.7352 30.8925 54.1847 31.2832L53.8038 31.3785C52.9878 31.5801 52.1015 31.7787 51.2331 31.8411C51.0905 31.8963 50.9366 31.943 50.7684 31.984C49.9776 32.1766 49.157 32.2375 48.3465 32.1695C47.5569 32.103 46.9864 31.3031 47.4214 30.5541C47.7391 30.0076 48.0598 29.4625 48.3832 28.9189C47.2577 29.3889 46.0954 29.7797 44.9232 30.111C43.7398 30.4451 42.5394 30.7268 41.3374 30.9859C40.6949 31.1233 40.0496 31.245 39.4085 31.3823C38.9495 31.48 38.2448 31.531 37.8704 31.834C37.4567 32.1667 37.3395 32.9425 37.1826 33.4211C36.9764 34.0426 36.783 34.6669 36.6064 35.2984C36.2549 36.5584 35.9668 37.8369 35.7437 39.1281C35.5206 40.4207 35.3707 41.726 35.2874 43.0356C35.2042 44.3438 35.2408 45.6604 35.1068 46.963C35.0346 47.6539 34.2948 48.0092 33.7482 47.5264C33.6841 47.4698 33.6195 47.4125 33.5555 47.3547L33.4601 47.2673C32.9925 46.8426 32.5392 46.3924 32.1651 45.8856C32.0973 45.7921 32.0323 45.6944 31.9716 45.5953C31.9617 45.5953 31.9533 45.5925 31.9434 45.5854L31.8396 45.5072C30.6975 44.6549 28.7893 43.5438 27.6756 44.9596C27.3207 45.4107 27.139 45.985 26.9882 46.5391L26.7236 47.5308C26.5524 48.1782 26.3914 48.8291 26.2971 49.4915C26.0839 50.9753 26.1912 52.6855 27.2096 53.8748C27.6163 54.3505 28.1769 54.6903 28.8024 54.7795C29.1514 54.8276 29.496 54.7681 29.842 54.7242C30.1936 54.6804 30.5324 54.7511 30.8842 54.7172C31.4434 54.6619 31.6878 55.333 31.4788 55.7549C31.3658 55.9814 31.2329 56.1768 31.0819 56.3425C31.2032 56.4472 31.3192 56.5605 31.4307 56.6794C31.7612 56.7856 32.0576 57.0136 32.2795 57.3151C32.4588 57.5586 32.5519 57.8234 32.5676 58.1023C32.5872 58.1717 32.6042 58.2424 32.6198 58.3147L32.9228 58.8076C32.9895 58.9157 33.0559 59.0225 33.1225 59.1273C33.8935 60.3449 34.7495 61.3756 35.8129 62.3468C36.8368 63.2812 37.9481 64.1179 38.9099 65.1203L39.0232 65.2393C39.92 66.1866 40.8652 67.3333 40.5142 68.7107C40.4239 69.0646 39.9308 69.3195 39.609 69.0802C38.5738 68.31 38.0526 67.0896 37.1743 66.1552C36.2703 65.1925 35.2691 64.3275 34.3625 63.3676C33.5052 62.4615 32.8287 61.435 32.319 60.3052C32.1155 60.5303 31.8191 60.6903 31.4081 60.7526C30.702 60.8588 30.0438 60.444 29.736 59.8309C29.5382 59.9187 29.3364 59.998 29.1329 60.0603C28.0624 60.3888 27.3889 59.1953 27.7928 58.3132C28.0087 57.8404 28.2785 57.4298 28.6133 57.0843C27.5667 56.9399 26.5019 56.3977 25.8141 55.7209C24.0885 54.0206 23.8513 51.4651 24.2396 49.1928C24.4458 47.988 24.8016 46.769 25.2635 45.6378C25.3439 45.441 25.4301 45.2428 25.5246 45.0474C25.4724 45.046 25.4187 45.0233 25.3848 44.9795C25.0727 44.5519 24.693 44.2022 24.4612 43.7237C24.248 43.2848 24.0108 42.8402 23.8426 42.3829C23.4968 41.4471 23.3273 40.3909 23.2143 39.4013C22.9813 37.3753 23.0716 35.3621 23.381 33.3489C23.9076 29.9198 25.1797 26.6384 27.0539 23.759C26.9519 23.7052 26.8541 23.6403 26.763 23.5636L26.718 23.5242L26.6448 23.458C26.11 22.9728 26.1562 22.0634 26.6448 21.572L26.7991 21.4169C26.9945 21.2223 27.1631 21.0681 27.4787 20.8562C27.5253 20.8249 27.5729 20.7954 27.6211 20.768C27.4559 20.4619 27.3985 20.104 27.5136 19.7091C27.9147 18.3336 29.889 18.3823 31.1404 18.9821C32.5248 17.7435 34.0599 16.6682 35.7238 15.7975C39.6867 13.7248 44.1676 12.2793 48.5428 11.3958ZM28.0585 47.6255C28.7985 47.3834 29.7815 47.8916 30.4466 48.1974C31.2897 48.5854 32.0071 49.1588 32.702 49.7647C33.048 50.0677 33.11 50.5632 33.0239 50.9865C33.0153 51.029 33.007 51.0729 32.997 51.1168C32.9052 51.5684 32.4024 51.9238 31.9576 51.911C31.0269 51.8855 30.5836 51.08 30.0567 50.3976C29.9947 50.508 29.917 50.6099 29.8209 50.6864L29.7559 50.7373C29.5373 50.9042 29.2963 51.0376 29.0074 51.0247C28.8026 51.0148 28.6065 50.9625 28.4256 50.8676C27.9736 50.6283 27.7747 50.0422 27.8974 49.5651C27.9736 49.2649 28.1488 49.0299 28.3775 48.8671L28.2923 48.8086C28.1098 48.6813 27.9434 48.5471 27.8137 48.3491L27.7844 48.3022H27.7957C27.6545 48.0587 27.7464 47.7274 28.0585 47.6255Z" fill="#25252D"/>
<path fill-rule="evenodd" clip-rule="evenodd" d="M53.3246 35.9178L53.5903 35.8713L53.7265 35.8482C54.5224 35.7165 55.466 35.6285 56.0157 36.2535C56.3241 36.604 56.4302 37.2556 56.0157 37.5911C55.2866 38.1815 54.4805 37.9527 53.6067 38.0027C52.8866 38.044 52.1946 38.1632 51.501 38.3616C49.9793 38.7966 48.7395 39.5909 47.4399 40.463C47.2693 40.5774 47.0953 40.3592 47.1766 40.1997C47.9269 38.7297 49.3807 37.5221 50.837 36.7861C51.6142 36.3932 52.4648 36.0673 53.3246 35.9178ZM53.8393 42.1713C54.0902 42.1713 54.3302 42.2565 54.5488 42.4141C54.7639 42.5693 54.9587 42.7958 55.1209 43.0783C55.4279 43.6128 55.6198 44.3509 55.6198 45.167C55.6198 45.9831 55.4279 46.7212 55.1209 47.2558C54.9587 47.5383 54.7639 47.7647 54.5488 47.9199C54.3302 48.0776 54.0902 48.1628 53.8393 48.1628C53.5883 48.1628 53.3483 48.0776 53.1297 47.9199C52.9146 47.7647 52.7198 47.5383 52.5576 47.2558C52.2507 46.7212 52.0588 45.9831 52.0588 45.167C52.0588 44.3509 52.2507 43.6128 52.5576 43.0783C52.7198 42.7958 52.9146 42.5693 53.1297 42.4141C53.3483 42.2565 53.5883 42.1713 53.8393 42.1713ZM69.7237 42.1713C69.9747 42.1713 70.2147 42.2565 70.4333 42.4141C70.6484 42.5693 70.8432 42.7958 71.0054 43.0783C71.3123 43.6128 71.5042 44.3509 71.5042 45.167C71.5042 45.9831 71.3123 46.7212 71.0054 47.2558C70.8432 47.5383 70.6484 47.7647 70.4333 47.9199C70.2147 48.0776 69.9747 48.1628 69.7237 48.1628C69.4728 48.1628 69.2328 48.0776 69.0142 47.9199C68.7991 47.7647 68.6043 47.5383 68.4421 47.2558C68.1351 46.7212 67.9432 45.9831 67.9432 45.167C67.9432 44.3509 68.1351 43.6128 68.4421 43.0783C68.6043 42.7958 68.7991 42.5693 69.0142 42.4141C69.2328 42.2565 69.4728 42.1713 69.7237 42.1713ZM67.5626 35.2594L67.766 35.301L67.9009 35.3296C70.0944 35.8016 72.8754 36.7321 73.9022 38.8627C73.9421 39.1702 73.8999 39.2361 73.8656 39.2792L73.8542 39.2935C73.8259 39.3303 73.8034 39.3809 73.6701 39.4228C73.6332 39.414 73.5958 39.4047 73.5581 39.3948C73.0777 39.2688 72.6977 39.0953 72.3297 38.9153L71.9308 38.7187C71.4679 38.4916 71.001 38.2729 70.5061 38.1114C69.4501 37.7668 68.3638 37.524 67.2607 37.3944C67.0217 37.3663 66.7914 37.2856 66.6098 37.1473C66.4374 37.016 66.3057 36.8341 66.2457 36.5925C66.1678 36.2797 66.1902 36.0429 66.3579 35.7608C66.4841 35.5489 66.6645 35.402 66.8718 35.3177C67.083 35.2317 67.3236 35.2115 67.5626 35.2594Z" fill="#25252D"/>
<path fill-rule="evenodd" clip-rule="evenodd" d="M75.2134 51.2827C74.9467 47.9014 70.6847 46.469 68.5619 46.0443C61.4932 44.3819 55.4793 48.6471 47.0505 48.7343C46.1999 48.7476 43.7671 48.604 42.6358 48.3052C36.8958 47.0004 31.1617 45.6125 25.5297 43.9012C24.7016 44.0952 24.4567 45.1764 25.0252 45.7924C30.4194 47.7061 38.672 49.4198 43.03 49.6149C42.9464 55.2468 39.9744 60.9099 35.8703 64.0246C42.3977 71.2458 57.6211 73.6206 66.5803 69.8302C70.9875 68.507 75.638 56.6626 75.2134 51.2827Z" fill="white"/>
<path fill-rule="evenodd" clip-rule="evenodd" d="M25.0744 44.0716C24.8316 44.0621 24.9732 43.3542 25.5199 43.4552C32.5739 45.1055 41.3624 48.2491 48.613 48.226C53.9469 48.0513 58.7262 45.0796 64.0895 45.0616C67.6947 45.1307 72.2919 45.6437 74.815 48.5378C78.1429 59.0964 70.6489 73.4574 58.8577 73.5405L56.6259 73.379C49.0186 72.8183 40.6846 71.9213 35.7812 65.4647L35.743 65.4975C35.0098 65.0054 35.0507 63.9426 35.6738 63.3959L35.6923 63.4251C35.7042 63.4058 35.7174 63.3874 35.7301 63.3686L35.7222 63.3438C35.9619 63.0921 36.2345 62.8567 36.4823 62.6459L36.4836 62.65C40.1654 59.5813 42.5695 54.9411 42.7079 50.1361C41.4889 50.471 21.0098 46.2237 24.6655 45.1872C27.2803 46.0715 29.9105 46.8702 32.5937 47.5058C32.6387 47.4805 32.7033 47.4872 32.728 47.5371C36.0105 48.3453 39.3592 48.8071 42.7123 49.181C42.7087 49.0207 42.7026 48.8605 42.6944 48.6999C36.7324 47.5388 30.8875 45.815 25.0744 44.0716ZM73.3517 48.3567C61.123 42.1767 55.0528 51.3069 43.2259 48.7931C44.4632 54.3154 41.4079 60.2689 37.2581 63.8772C43.2878 69.098 45.8974 69.8885 53.8071 70.7359L54.8404 70.859C56.394 71.043 57.9622 71.2147 59.5206 71.2416C67.6044 70.653 73.7126 62.2394 74.6267 54.6161L74.6317 54.4056C74.6726 52.4709 74.5838 50.423 73.7271 48.6506C73.5693 48.5957 73.4321 48.4967 73.3517 48.3567ZM56.3256 53.208C56.7482 53.1128 57.1794 53.5741 56.9175 53.978C56.071 55.284 54.001 55.79 52.5532 55.9953C50.8766 56.233 49.2514 56.0456 47.6587 55.4735C47.5733 55.4428 47.5794 55.2918 47.6816 55.304C49.1939 55.4841 50.7529 55.3523 52.2223 54.9519C53.7123 54.6615 54.9154 53.6702 56.3256 53.208ZM67.8163 52.2672C67.8092 52.019 69.0289 52.7371 69.2217 52.8338C70.7114 53.7286 72.4357 53.7941 74.0786 54.1454C74.4616 54.2924 74.461 54.7794 74.0785 54.9263C72.028 55.4718 68.9161 54.0402 67.8163 52.2672Z" fill="#25252D"/>
<defs>
<filter id="filter0_i" x="0" y="40" width="96" height="96" filterUnits="userSpaceOnUse" color-interpolation-filters="sRGB">
<feFlood flood-opacity="0" result="BackgroundImageFix"/>
<feBlend mode="normal" in="SourceGraphic" in2="BackgroundImageFix" result="shape"/>
<feColorMatrix in="SourceAlpha" type="matrix" values="0 0 0 0 0 0 0 0 0 0 0 0 0 0 0 0 0 0 127 0" result="hardAlpha"/>
<feOffset dy="13"/>
<feComposite in2="hardAlpha" operator="arithmetic" k2="-1" k3="1"/>
<feColorMatrix type="matrix" values="0 0 0 0 0 0 0 0 0 0 0 0 0 0 0 0 0 0 0.1 0"/>
<feBlend mode="normal" in2="shape" result="effect1_innerShadow"/>
</filter>
</defs>
</svg>
